<mxfile host="app.diagrams.net" modified="2021-08-18T01:27:59.929Z" agent="5.0 (Windows NT 10.0; Win64; x64) AppleWebKit/537.36 (KHTML, like Gecko) Chrome/92.0.4515.159 Safari/537.36" etag="osrdK-3lBvp6X9Dn3Nx7" version="14.9.7" type="github">
  <diagram id="C5RBs43oDa-KdzZeNtuy" name="Page-1">
    <mxGraphModel dx="1422" dy="762" grid="1" gridSize="10" guides="1" tooltips="1" connect="1" arrows="1" fold="1" page="1" pageScale="1" pageWidth="827" pageHeight="1169" background="none" math="0" shadow="0">
      <root>
        <mxCell id="WIyWlLk6GJQsqaUBKTNV-0" />
        <mxCell id="WIyWlLk6GJQsqaUBKTNV-1" parent="WIyWlLk6GJQsqaUBKTNV-0" />
        <mxCell id="nSisR4guIrfHE9iIkY8Y-0" value="BASE" style="html=1;strokeWidth=2;shape=manualInput;whiteSpace=wrap;rounded=1;size=26;arcSize=11;verticalAlign=middle;align=center;" parent="WIyWlLk6GJQsqaUBKTNV-1" vertex="1">
          <mxGeometry x="80" y="260" width="100" height="60" as="geometry" />
        </mxCell>
        <mxCell id="nSisR4guIrfHE9iIkY8Y-1" value="&lt;font style=&quot;font-size: 15px&quot;&gt;INICIO&lt;/font&gt;" style="strokeWidth=2;html=1;shape=mxgraph.flowchart.start_2;whiteSpace=wrap;verticalAlign=middle;align=center;" parent="WIyWlLk6GJQsqaUBKTNV-1" vertex="1">
          <mxGeometry x="80" y="130" width="100" height="100" as="geometry" />
        </mxCell>
        <mxCell id="nSisR4guIrfHE9iIkY8Y-2" value="ALTURA" style="html=1;strokeWidth=2;shape=manualInput;whiteSpace=wrap;rounded=1;size=26;arcSize=11;verticalAlign=middle;align=center;" parent="WIyWlLk6GJQsqaUBKTNV-1" vertex="1">
          <mxGeometry x="80" y="360" width="100" height="60" as="geometry" />
        </mxCell>
        <mxCell id="nSisR4guIrfHE9iIkY8Y-5" value="" style="endArrow=classic;html=1;exitX=0.5;exitY=1;exitDx=0;exitDy=0;exitPerimeter=0;entryX=0.5;entryY=0.225;entryDx=0;entryDy=0;entryPerimeter=0;" parent="WIyWlLk6GJQsqaUBKTNV-1" source="nSisR4guIrfHE9iIkY8Y-1" target="nSisR4guIrfHE9iIkY8Y-0" edge="1">
          <mxGeometry width="50" height="50" relative="1" as="geometry">
            <mxPoint x="36" y="340" as="sourcePoint" />
            <mxPoint x="130" y="270" as="targetPoint" />
          </mxGeometry>
        </mxCell>
        <mxCell id="nSisR4guIrfHE9iIkY8Y-6" value="" style="endArrow=classic;html=1;exitX=0.5;exitY=1;exitDx=0;exitDy=0;entryX=0.496;entryY=0.22;entryDx=0;entryDy=0;entryPerimeter=0;" parent="WIyWlLk6GJQsqaUBKTNV-1" source="nSisR4guIrfHE9iIkY8Y-0" target="nSisR4guIrfHE9iIkY8Y-2" edge="1">
          <mxGeometry width="50" height="50" relative="1" as="geometry">
            <mxPoint x="129" y="330.0000000000001" as="sourcePoint" />
            <mxPoint x="129" y="370" as="targetPoint" />
          </mxGeometry>
        </mxCell>
        <mxCell id="nSisR4guIrfHE9iIkY8Y-7" value="AREA = BASE x ALTURA" style="rounded=1;whiteSpace=wrap;html=1;absoluteArcSize=1;arcSize=14;strokeWidth=2;align=center;verticalAlign=middle;" parent="WIyWlLk6GJQsqaUBKTNV-1" vertex="1">
          <mxGeometry x="80" y="470" width="100" height="60" as="geometry" />
        </mxCell>
        <mxCell id="nSisR4guIrfHE9iIkY8Y-8" value="" style="endArrow=classic;html=1;exitX=0.5;exitY=1;exitDx=0;exitDy=0;" parent="WIyWlLk6GJQsqaUBKTNV-1" edge="1">
          <mxGeometry width="50" height="50" relative="1" as="geometry">
            <mxPoint x="129.39999999999998" y="420" as="sourcePoint" />
            <mxPoint x="129" y="470" as="targetPoint" />
          </mxGeometry>
        </mxCell>
        <mxCell id="pyFOSILM-I7uizpb-qyc-0" value="AREA" style="strokeWidth=2;html=1;shape=mxgraph.flowchart.display;whiteSpace=wrap;" vertex="1" parent="WIyWlLk6GJQsqaUBKTNV-1">
          <mxGeometry x="80" y="580" width="100" height="60" as="geometry" />
        </mxCell>
        <mxCell id="pyFOSILM-I7uizpb-qyc-1" value="" style="endArrow=classic;html=1;exitX=0.5;exitY=1;exitDx=0;exitDy=0;" edge="1" parent="WIyWlLk6GJQsqaUBKTNV-1">
          <mxGeometry width="50" height="50" relative="1" as="geometry">
            <mxPoint x="129.39999999999998" y="530" as="sourcePoint" />
            <mxPoint x="129" y="580" as="targetPoint" />
          </mxGeometry>
        </mxCell>
        <mxCell id="pyFOSILM-I7uizpb-qyc-3" value="&lt;div style=&quot;font-family: consolas, &amp;quot;courier new&amp;quot;, monospace; font-size: 15px; line-height: 20px;&quot;&gt;&lt;div&gt;&lt;span style=&quot;&quot;&gt;printf&lt;/span&gt;(&lt;span style=&quot;&quot;&gt;&quot;Digite&amp;nbsp;a&amp;nbsp;medida&amp;nbsp;da&amp;nbsp;base&amp;nbsp;do&amp;nbsp;retangulo:&amp;nbsp;&quot;&lt;/span&gt;);&lt;/div&gt;&lt;div&gt;&lt;span style=&quot;&quot;&gt;scanf&lt;/span&gt;(&lt;span style=&quot;&quot;&gt;&quot;&lt;/span&gt;&lt;span style=&quot;&quot;&gt;%i&lt;/span&gt;&lt;span style=&quot;&quot;&gt;&quot;&lt;/span&gt;,&amp;amp;&lt;span style=&quot;&quot;&gt;base&lt;/span&gt;);&lt;/div&gt;&lt;/div&gt;" style="text;html=1;strokeColor=none;fillColor=none;align=center;verticalAlign=middle;whiteSpace=wrap;rounded=0;labelBorderColor=none;" vertex="1" parent="WIyWlLk6GJQsqaUBKTNV-1">
          <mxGeometry x="320" y="270" width="400" height="40" as="geometry" />
        </mxCell>
        <mxCell id="pyFOSILM-I7uizpb-qyc-4" value="" style="strokeWidth=2;html=1;shape=mxgraph.flowchart.annotation_2;align=left;labelPosition=right;pointerEvents=1;" vertex="1" parent="WIyWlLk6GJQsqaUBKTNV-1">
          <mxGeometry x="260" y="350" width="50" height="80" as="geometry" />
        </mxCell>
        <mxCell id="pyFOSILM-I7uizpb-qyc-6" value="" style="strokeWidth=2;html=1;shape=mxgraph.flowchart.annotation_2;align=left;labelPosition=right;pointerEvents=1;" vertex="1" parent="WIyWlLk6GJQsqaUBKTNV-1">
          <mxGeometry x="260" y="250" width="50" height="80" as="geometry" />
        </mxCell>
        <mxCell id="pyFOSILM-I7uizpb-qyc-7" value="" style="strokeWidth=2;html=1;shape=mxgraph.flowchart.annotation_2;align=left;labelPosition=right;pointerEvents=1;" vertex="1" parent="WIyWlLk6GJQsqaUBKTNV-1">
          <mxGeometry x="260" y="460" width="50" height="80" as="geometry" />
        </mxCell>
        <mxCell id="pyFOSILM-I7uizpb-qyc-8" value="" style="strokeWidth=2;html=1;shape=mxgraph.flowchart.annotation_2;align=left;labelPosition=right;pointerEvents=1;" vertex="1" parent="WIyWlLk6GJQsqaUBKTNV-1">
          <mxGeometry x="260" y="570" width="50" height="80" as="geometry" />
        </mxCell>
        <mxCell id="pyFOSILM-I7uizpb-qyc-9" value="&lt;div style=&quot;font-family: consolas, &amp;quot;courier new&amp;quot;, monospace; font-weight: normal; font-size: 15px; line-height: 20px;&quot;&gt;&lt;div&gt;&lt;span style=&quot;&quot;&gt;printf&lt;/span&gt;&lt;span style=&quot;&quot;&gt;(&lt;/span&gt;&lt;span style=&quot;&quot;&gt;&quot;Digite&amp;nbsp;a&amp;nbsp;medida&amp;nbsp;da&amp;nbsp;altura&amp;nbsp;do&amp;nbsp;retangulo:&amp;nbsp;&quot;&lt;/span&gt;&lt;span style=&quot;&quot;&gt;);&lt;/span&gt;&lt;/div&gt;&lt;div&gt;&lt;span style=&quot;&quot;&gt;scanf&lt;/span&gt;&lt;span style=&quot;&quot;&gt;(&lt;/span&gt;&lt;span style=&quot;&quot;&gt;&quot;&lt;/span&gt;&lt;span style=&quot;&quot;&gt;%i&lt;/span&gt;&lt;span style=&quot;&quot;&gt;&quot;&lt;/span&gt;&lt;span style=&quot;&quot;&gt;,&amp;amp;&lt;/span&gt;&lt;span style=&quot;&quot;&gt;altura&lt;/span&gt;&lt;span style=&quot;&quot;&gt;);&lt;/span&gt;&lt;/div&gt;&lt;/div&gt;" style="text;whiteSpace=wrap;html=1;rounded=0;align=center;verticalAlign=middle;labelBorderColor=none;" vertex="1" parent="WIyWlLk6GJQsqaUBKTNV-1">
          <mxGeometry x="320" y="360" width="420" height="60" as="geometry" />
        </mxCell>
        <mxCell id="pyFOSILM-I7uizpb-qyc-10" value="&lt;div style=&quot;font-family: consolas, &amp;quot;courier new&amp;quot;, monospace; font-weight: normal; font-size: 15px; line-height: 20px;&quot;&gt;&lt;div&gt;&lt;span style=&quot;&quot;&gt;area&lt;/span&gt;&lt;span style=&quot;&quot;&gt;&amp;nbsp;=&amp;nbsp;&lt;/span&gt;&lt;span style=&quot;&quot;&gt;base&lt;/span&gt;&lt;span style=&quot;&quot;&gt;&amp;nbsp;*&amp;nbsp;&lt;/span&gt;&lt;span style=&quot;&quot;&gt;altura&lt;/span&gt;&lt;span style=&quot;&quot;&gt;;&lt;/span&gt;&lt;/div&gt;&lt;/div&gt;" style="text;whiteSpace=wrap;html=1;rounded=0;align=center;verticalAlign=middle;labelBorderColor=none;" vertex="1" parent="WIyWlLk6GJQsqaUBKTNV-1">
          <mxGeometry x="320" y="480" width="200" height="40" as="geometry" />
        </mxCell>
        <mxCell id="pyFOSILM-I7uizpb-qyc-11" value="&lt;div style=&quot;font-family: consolas, &amp;quot;courier new&amp;quot;, monospace; font-weight: normal; font-size: 15px; line-height: 20px;&quot;&gt;&lt;div&gt;&lt;span style=&quot;&quot;&gt;printf&lt;/span&gt;&lt;span style=&quot;&quot;&gt;(&lt;/span&gt;&lt;span style=&quot;&quot;&gt;&quot;A&amp;nbsp;area&amp;nbsp;de&amp;nbsp;um&amp;nbsp;retangulo&amp;nbsp;com&amp;nbsp;base&amp;nbsp;de&amp;nbsp;&lt;/span&gt;&lt;span style=&quot;&quot;&gt;%i&lt;/span&gt;&lt;span style=&quot;&quot;&gt;,&lt;/span&gt;&lt;/div&gt;&lt;div&gt;&lt;span style=&quot;&quot;&gt;&amp;nbsp;altura&amp;nbsp;de&amp;nbsp;&lt;/span&gt;&lt;span style=&quot;&quot;&gt;%i&lt;/span&gt;&lt;span style=&quot;&quot;&gt;,&amp;nbsp;e&amp;nbsp;de&amp;nbsp;&amp;nbsp;&lt;/span&gt;&lt;span style=&quot;&quot;&gt;%i&lt;/span&gt;&lt;span style=&quot;&quot;&gt;&amp;nbsp;unidades&amp;nbsp;de&amp;nbsp;area&quot;&lt;/span&gt;&lt;span style=&quot;&quot;&gt;,&lt;/span&gt;&lt;span style=&quot;&quot;&gt;base&lt;/span&gt;&lt;span style=&quot;&quot;&gt;,&lt;/span&gt;&lt;span style=&quot;&quot;&gt;altura&lt;/span&gt;&lt;span style=&quot;&quot;&gt;,&lt;/span&gt;&lt;span style=&quot;&quot;&gt;area&lt;/span&gt;&lt;span style=&quot;&quot;&gt;);&lt;/span&gt;&lt;/div&gt;&lt;/div&gt;" style="text;html=1;whiteSpace=wrap;" vertex="1" parent="WIyWlLk6GJQsqaUBKTNV-1">
          <mxGeometry x="320" y="585" width="550" height="40" as="geometry" />
        </mxCell>
        <mxCell id="pyFOSILM-I7uizpb-qyc-12" value="&lt;div style=&quot;font-family: consolas, &amp;quot;courier new&amp;quot;, monospace; font-weight: normal; font-size: 15px; line-height: 20px;&quot;&gt;&lt;div&gt;&lt;span style=&quot;&quot;&gt;#include&lt;/span&gt;&lt;span style=&quot;&quot;&gt;&amp;lt;stdio.h&amp;gt;&lt;/span&gt;&lt;/div&gt;&lt;div&gt;&lt;span style=&quot;&quot;&gt;#include&lt;/span&gt;&lt;span style=&quot;&quot;&gt;&amp;lt;stdlib.h&amp;gt;&lt;/span&gt;&lt;/div&gt;&lt;br&gt;&lt;div&gt;&lt;span style=&quot;&quot;&gt;int&lt;/span&gt;&lt;span style=&quot;&quot;&gt;&amp;nbsp;&lt;/span&gt;&lt;span style=&quot;&quot;&gt;main&lt;/span&gt;&lt;span style=&quot;&quot;&gt;(&lt;/span&gt;&lt;span style=&quot;&quot;&gt;int&lt;/span&gt;&lt;span style=&quot;&quot;&gt;&amp;nbsp;&lt;/span&gt;&lt;span style=&quot;&quot;&gt;argc&lt;/span&gt;&lt;span style=&quot;&quot;&gt;,&amp;nbsp;&lt;/span&gt;&lt;span style=&quot;&quot;&gt;char&lt;/span&gt;&lt;span style=&quot;&quot;&gt;&amp;nbsp;*&lt;/span&gt;&lt;span style=&quot;&quot;&gt;argv&lt;/span&gt;&lt;span style=&quot;&quot;&gt;[]&lt;/span&gt;&lt;span style=&quot;&quot;&gt;){&lt;/span&gt;&lt;/div&gt;&lt;div&gt;&lt;span style=&quot;&quot;&gt;int&lt;/span&gt;&lt;span style=&quot;&quot;&gt;&amp;nbsp;&lt;/span&gt;&lt;span style=&quot;&quot;&gt;base&lt;/span&gt;&lt;span style=&quot;&quot;&gt;,&lt;/span&gt;&lt;span style=&quot;&quot;&gt;altura&lt;/span&gt;&lt;span style=&quot;&quot;&gt;,&lt;/span&gt;&lt;span style=&quot;&quot;&gt;area&lt;/span&gt;&lt;span style=&quot;&quot;&gt;;&lt;/span&gt;&lt;/div&gt;&lt;/div&gt;" style="text;whiteSpace=wrap;html=1;rounded=0;align=center;verticalAlign=middle;labelBorderColor=none;" vertex="1" parent="WIyWlLk6GJQsqaUBKTNV-1">
          <mxGeometry x="320" y="110" width="300" height="120" as="geometry" />
        </mxCell>
        <mxCell id="pyFOSILM-I7uizpb-qyc-13" value="" style="strokeWidth=2;html=1;shape=mxgraph.flowchart.annotation_2;align=left;labelPosition=right;pointerEvents=1;" vertex="1" parent="WIyWlLk6GJQsqaUBKTNV-1">
          <mxGeometry x="260" y="140" width="50" height="80" as="geometry" />
        </mxCell>
      </root>
    </mxGraphModel>
  </diagram>
</mxfile>
